<?xml version="1.0" encoding="UTF-8" standalone="no"?>
<!DOCTYPE svg PUBLIC "-//W3C//DTD SVG 1.1//EN" "http://www.w3.org/Graphics/SVG/1.1/DTD/svg11.dtd">
<svg width="100%" height="100%" viewBox="0 0 2149 550" version="1.1" xmlns="http://www.w3.org/2000/svg" xmlns:xlink="http://www.w3.org/1999/xlink" xml:space="preserve" xmlns:serif="http://www.serif.com/" style="fill-rule:evenodd;clip-rule:evenodd;">
    <g transform="matrix(0.984014,0,0,1.055238,-3.950963,-99.797143)">
        <path d="M785,201.5L785,464L315.833,464C264.045,464 222,424.793 222,376.5L222,114L691.167,114C742.955,114 785,153.207 785,201.5Z" style="fill:none;"/>
        <g>
            <clipPath id="_clip1">
                <path d="M785,201.5L785,464L315.833,464C264.045,464 222,424.793 222,376.5L222,114L691.167,114C742.955,114 785,153.207 785,201.5Z"/>
            </clipPath>
            <g clip-path="url(#_clip1)">
                <g transform="matrix(26.07316,0,0,24.313335,222,97.63145)">
                    <rect x="0" y="0" width="22" height="16" style="fill:rgb(186,12,47);"/>
                    <path d="M0,8L22,8M8,0L8,16" style="fill-rule:nonzero;stroke:white;stroke-width:4px;"/>
                    <path d="M0,8L22,8M8,0L8,16" style="fill-rule:nonzero;stroke:rgb(0,32,91);stroke-width:2px;"/>
                </g>
            </g>
        </g>
        <path d="M785,201.5L785,464L315.833,464C264.045,464 222,424.793 222,376.5L222,114L691.167,114C742.955,114 785,153.207 785,201.5Z" style="fill:none;stroke:rgb(255,240,240);stroke-width:14.7px;stroke-linecap:round;stroke-linejoin:round;stroke-miterlimit:1.5;"/>
    </g>
    <g transform="matrix(0.984014,0,0,1.055238,1162.049038,-99.797188)">
        <path d="M785,201.5L785,464L315.833,464C264.045,464 222,424.793 222,376.5L222,114L691.167,114C742.955,114 785,153.207 785,201.5Z" style="fill:none;"/>
        <clipPath id="_clip2">
            <path d="M785,201.5L785,464L315.833,464C264.045,464 222,424.793 222,376.5L222,114L691.167,114C742.955,114 785,153.207 785,201.5Z"/>
        </clipPath>
        <g clip-path="url(#_clip2)">
            <g transform="matrix(1,0,0,1,1277.929061,-33.01)">
                <g transform="matrix(32.519863,0,0,30.324912,-1180.927342,94.573156)">
                    <rect x="0" y="0" width="25" height="15" style="fill:white;"/>
                </g>
                <g transform="matrix(32.519863,0,0,30.324912,-1180.927342,94.573156)">
                    <rect x="11" y="0" width="3" height="15" style="fill:rgb(206,17,36);"/>
                    <rect x="0" y="6" width="25" height="3" style="fill:rgb(206,17,36);"/>
                </g>
            </g>
        </g>
        <path d="M785,201.5L785,464L315.833,464C264.045,464 222,424.793 222,376.5L222,114L691.167,114C742.955,114 785,153.207 785,201.5Z" style="fill:none;stroke:rgb(255,240,240);stroke-width:14.7px;stroke-linecap:round;stroke-linejoin:round;stroke-miterlimit:1.5;"/>
    </g>
    <g id="V1" transform="matrix(0.896706,0,0,0.911058,-31.982813,-122.701688)">
        <g transform="matrix(0.874601,0,0,0.860823,185.739899,185.561259)">
            <g transform="matrix(1,0,0,1,251,577)">
                <text x="0px" y="0px" style="font-family:'ArialMT', 'Arial', sans-serif;font-size:123.781px;">NORGE</text>
            </g>
        </g>
        <g transform="matrix(0.874601,0,0,0.860823,1502.449426,205.801753)">
            <g transform="matrix(1,0,0,1,251,576.999999)">
                <g transform="matrix(1,0,0,1,-77.773598,-24.178161)">
                    <g transform="matrix(123.781,0,0,123.781,598.41586,0)">
                    </g>
                    <text x="0px" y="0px" style="font-family:'ArialMT', 'Arial', sans-serif;font-size:123.781px;">ENGLAND</text>
                </g>
            </g>
        </g>
        <g transform="matrix(0.603933,0,0,0.594419,587.464442,326.189104)">
            <g transform="matrix(1,0,0,1,818,393)">
                <text x="0px" y="0px" style="font-family:'ArialMT', 'Arial', sans-serif;font-size:382.515px;">VS</text>
            </g>
        </g>
    </g>
</svg>
